<svg width="33" height="33" viewBox="0 0 33 33" fill="none" xmlns="http://www.w3.org/2000/svg">
<rect width="33" height="33" rx="4" fill="black"/>
<path d="M5.40625 6L8.6875 17.2812H8.8125L12.0938 6H17L11.7188 22H5.78125L0.5 6H5.40625Z" fill="white"/>
<path d="M18.321 22V6H25.2273C26.4148 6 27.4538 6.21615 28.3445 6.64844C29.2351 7.08073 29.9278 7.70312 30.4226 8.51563C30.9174 9.32812 31.1648 10.3021 31.1648 11.4375C31.1648 12.5833 30.9096 13.5495 30.3991 14.3359C29.8939 15.1224 29.183 15.7161 28.2663 16.1172C27.3549 16.5182 26.2898 16.7187 25.071 16.7187H20.946V13.3438H24.196C24.7064 13.3438 25.1413 13.2812 25.5007 13.1562C25.8653 13.026 26.1439 12.8203 26.3366 12.5391C26.5346 12.2578 26.6335 11.8906 26.6335 11.4375C26.6335 10.9792 26.5346 10.6068 26.3366 10.3203C26.1439 10.0286 25.8653 9.8151 25.5007 9.67969C25.1413 9.53906 24.7064 9.46875 24.196 9.46875H22.6648V22H18.321ZM27.696 14.6562L31.696 22H26.9773L23.071 14.6562H27.696Z" fill="#00D9FF"/>
<path d="M6.97727 25.6364C6.94697 25.2746 6.79924 24.982 6.53409 24.7585C6.27083 24.535 5.92992 24.4233 5.51136 24.4233C5.22917 24.4233 4.97822 24.4754 4.75852 24.5795C4.53883 24.6837 4.36648 24.8258 4.24148 25.0057C4.11648 25.1856 4.05398 25.392 4.05398 25.625C4.05398 25.7746 4.08239 25.91 4.1392 26.0312C4.19792 26.1506 4.2803 26.2576 4.38636 26.3523C4.49242 26.4451 4.61837 26.5265 4.7642 26.5966C4.91004 26.6667 5.07102 26.7282 5.24716 26.7812L5.88352 26.9688C6.10133 27.035 6.30208 27.1117 6.4858 27.1989C6.6714 27.286 6.83239 27.3902 6.96875 27.5114C7.10701 27.6307 7.21402 27.7708 7.28977 27.9318C7.36742 28.0928 7.40625 28.2784 7.40625 28.4886C7.40625 28.7955 7.3267 29.0701 7.16761 29.3125C7.01042 29.5549 6.78598 29.7462 6.49432 29.8864C6.20455 30.0246 5.86269 30.0938 5.46875 30.0938C5.09375 30.0938 4.76705 30.0303 4.48864 29.9034C4.21212 29.7765 3.99337 29.6004 3.83239 29.375C3.6714 29.1477 3.58049 28.8864 3.55966 28.5909H3.9233C3.94223 28.8314 4.01894 29.0398 4.15341 29.2159C4.28977 29.3902 4.47064 29.5246 4.69602 29.6193C4.9214 29.714 5.17898 29.7614 5.46875 29.7614C5.78125 29.7614 6.05682 29.7083 6.29545 29.6023C6.53409 29.4943 6.72064 29.3447 6.85511 29.1534C6.98958 28.9621 7.05682 28.7396 7.05682 28.4858C7.05682 28.2812 7.00852 28.1061 6.91193 27.9602C6.81534 27.8144 6.67235 27.6884 6.48295 27.5824C6.29545 27.4763 6.0625 27.3816 5.78409 27.2983L5.10511 27.0938C4.65057 26.9555 4.30303 26.767 4.0625 26.5284C3.82386 26.2898 3.70455 25.9924 3.70455 25.6364C3.70455 25.3371 3.78409 25.072 3.94318 24.8409C4.10227 24.608 4.31818 24.4252 4.59091 24.2926C4.86553 24.16 5.17519 24.0938 5.51989 24.0938C5.86648 24.0938 6.17235 24.161 6.4375 24.2955C6.70265 24.428 6.91288 24.6108 7.06818 24.8438C7.22348 25.0748 7.30966 25.339 7.3267 25.6364H6.97727ZM9.57875 24.1818H9.9992L11.8316 26.9886H11.8714L13.7038 24.1818H14.1242L12.0305 27.3608V30H11.6725V27.3608L9.57875 24.1818ZM21.0226 24.1818V30H20.676L16.9657 24.8267H16.9316V30H16.5765V24.1818H16.926L20.6362 29.3608H20.6703V24.1818H21.0226ZM28.4934 26H28.1297C28.0918 25.803 28.0208 25.6127 27.9166 25.429C27.8125 25.2434 27.678 25.0767 27.5132 24.929C27.3504 24.7794 27.161 24.661 26.9451 24.5739C26.7291 24.4867 26.4905 24.4432 26.2291 24.4432C25.8466 24.4432 25.4943 24.5455 25.1723 24.75C24.8523 24.9527 24.5956 25.2509 24.4024 25.6449C24.2112 26.0388 24.1155 26.5208 24.1155 27.0909C24.1155 27.6648 24.2112 28.1487 24.4024 28.5426C24.5956 28.9366 24.8523 29.2348 25.1723 29.4375C25.4943 29.6383 25.8466 29.7386 26.2291 29.7386C26.4905 29.7386 26.7291 29.696 26.9451 29.6108C27.161 29.5237 27.3504 29.4062 27.5132 29.2585C27.678 29.1089 27.8125 28.9413 27.9166 28.7557C28.0208 28.5701 28.0918 28.3788 28.1297 28.1818H28.4934C28.4517 28.4167 28.3712 28.6468 28.2519 28.8722C28.1345 29.0975 27.9791 29.3021 27.786 29.4858C27.5947 29.6676 27.3684 29.8125 27.107 29.9205C26.8475 30.0265 26.5549 30.0795 26.2291 30.0795C25.7443 30.0795 25.3172 29.9564 24.9479 29.7102C24.5786 29.4621 24.2888 29.1136 24.0786 28.6648C23.8702 28.2159 23.7661 27.6913 23.7661 27.0909C23.7661 26.4905 23.8702 25.9659 24.0786 25.517C24.2888 25.0682 24.5786 24.7206 24.9479 24.4744C25.3172 24.2263 25.7443 24.1023 26.2291 24.1023C26.5549 24.1023 26.8475 24.1562 27.107 24.2642C27.3684 24.3703 27.5947 24.5142 27.786 24.696C27.9791 24.8759 28.1345 25.0786 28.2519 25.304C28.3712 25.5294 28.4517 25.7614 28.4934 26Z" fill="white"/>
</svg>
